#!OML:ASF X:\für Bonn\!DataBase\2005_08_12_Daniel\c3d\Daniel.ASF
:FULLY-SPECIFIED
:DEGREES
63
root 3.6343 18.041 -2.3205 -0.167404 168.782 -349.53
lowerback 9.36631 2.25653 1.85352
upperback 1.14599 3.2848 -0.110727
thorax -3.94463 1.6407 -1.56943
lowerneck -5.55982 11.2135 2.48264
upperneck 2.92276 15.7939 -10.434
head 3.09483 7.75043 -3.04448
rclavicle -5.6753e-014 1.59028e-015
rhumerus -58.4122 26.2464 -107.851
rradius 105.733
rwrist 3.72311
rhand -23.4939 35.9519
rfingers 7.12502
rthumb 2.96615 5.99283
lclavicle -5.6753e-014 1.59028e-015
lhumerus -81.5616 -6.59229 98.4126
lradius 105.828
lwrist 18.4029
lhand -7.22878 -14.6947
lfingers 7.12502
lthumb 18.6508 14.4312
rfemur 13.6948 -0.18715 22.2703
rtibia 33.2355
rfoot 9.56115 -5.07909
rtoes -17.818
lfemur -29.9762 4.98314 -23.1377
ltibia 53.245
lfoot -10.2355 -0.97546
ltoes -9.74825
64
root 3.66044 18.0754 -2.65791 -0.211096 169.451 -349.286
lowerback 9.21438 2.17944 1.96087
upperback 1.1576 3.19075 -0.0809034
thorax -3.84745 1.59416 -1.57943
lowerneck -5.49785 11.2372 2.36947
upperneck 3.04931 15.8687 -10.4683
head 3.12523 7.78786 -3.0325
rclavicle 1.2921e-014 -4.77083e-015
rhumerus -59.0563 26.6083 -108.413
rradius 105.683
rwrist 3.40386
rhand -22.6634 35.3851
rfingers 7.12502
rthumb 3.76812 5.43869
lclavicle 1.2921e-014 -4.77083e-015
lhumerus -81.5046 -5.99749 98.0569
lradius 106.736
lwrist 18.5207
lhand -7.233 -14.9761
lfingers 7.12502
lthumb 18.6467 14.1502
rfemur 13.7086 -0.926821 22.2141
rtibia 34.6978
rfoot 9.53638 -5.49335
rtoes -18.8291
lfemur -29.2602 4.72621 -23.0056
ltibia 50.0578
lfoot -10.7711 -0.428763
ltoes -10.1811
65
root 3.68769 18.0948 -2.99742 -0.296722 170.142 -349.074
lowerback 9.02776 2.1029 2.03379
upperback 1.23439 3.0944 -0.074352
thorax -3.66406 1.55014 -1.59101
lowerneck -5.59979 11.257 2.30284
upperneck 3.21108 15.936 -10.5059
head 3.20249 7.81465 -3.019
rclavicle -1.86858e-014 -1.59028e-015
rhumerus -59.5581 26.8339 -108.913
rradius 105.536
rwrist 2.89404
rhand -22.0502 34.3728
rfingers 7.12502
rthumb 4.3603 4.43772
lclavicle -1.86858e-014 -1.59028e-015
lhumerus -81.3231 -5.52363 97.7176
lradius 107.596
lwrist 18.6498
lhand -7.32439 -15.2633
lfingers 7.12502
lthumb 18.5588 13.8714
rfemur 13.6901 -1.62532 22.14
rtibia 36.3616
rfoot 9.014 -5.98729
rtoes -19.7923
lfemur -28.5926 4.43136 -22.9188
ltibia 47.1527
lfoot -11.1861 0.356511
ltoes -10.0323
66
root 3.7133 18.0932 -3.33351 -0.415853 170.908 -348.849
lowerback 8.92682 1.98326 2.09172
upperback 1.30855 2.94315 -0.0339751
thorax -3.53621 1.47879 -1.55766
lowerneck -5.66452 11.2942 2.39085
upperneck 3.35476 16.0244 -10.6471
head 3.29514 7.85318 -3.06632
rclavicle -1.5704e-014 -2.54444e-014
rhumerus -60.0347 27.014 -109.308
rradius 105.194
rwrist 2.37183
rhand -21.7015 33.181
rfingers 7.12502
rthumb 4.69697 3.25304
lclavicle -1.5704e-014 -2.54444e-014
lhumerus -81.0295 -4.98479 97.3772
lradius 108.432
lwrist 18.8031
lhand -7.3531 -15.4784
lfingers 7.12502
lthumb 18.5312 13.659
rfemur 13.633 -2.40783 22.0242
rtibia 38.195
rfoot 8.14524 -6.31652
rtoes -20.5685
lfemur -28.0304 4.24471 -22.8807
ltibia 44.6039
lfoot -11.3827 1.24992
ltoes -9.41474
67
root 3.73747 18.0808 -3.67192 -0.558243 171.675 -348.65
lowerback 8.83288 1.85424 2.09243
upperback 1.39224 2.77417 8.50514e-005
thorax -3.40556 1.39963 -1.49755
lowerneck -5.6989 11.3409 2.59554
upperneck 3.64635 16.147 -11.154
head 3.14592 7.87732 -2.90794
rclavicle 4.01545e-014 1.11319e-014
rhumerus -60.365 27.0603 -109.677
rradius 104.549
rwrist 1.88955
rhand -21.6889 31.9666
rfingers 7.12502
rthumb 4.70913 2.03891
lclavicle 4.01545e-014 1.11319e-014
lhumerus -80.6054 -4.52965 97.0737
lradius 109.225
lwrist 19.0011
lhand -7.53521 -15.5738
lfingers 7.12502
lthumb 18.356 13.5801
rfemur 13.5352 -3.08588 21.8928
rtibia 40.1377
rfoot 7.26945 -6.65542
rtoes -20.44
lfemur -27.5579 4.09003 -22.9127
ltibia 42.4533
lfoot -11.4446 2.29288
ltoes -8.26672
68
root 3.75578 18.0557 -4.00897 -0.773296 172.519 -348.421
lowerback 8.83345 1.68953 2.21717
upperback 1.50528 2.57482 0.0384384
thorax -3.29286 1.3054 -1.50285
lowerneck -5.78462 11.3797 2.72023
upperneck 3.80469 16.2508 -11.3812
head 3.24449 7.92002 -2.97083
rclavicle 4.57205e-015 2.70347e-014
rhumerus -60.5992 26.9873 -109.878
rradius 103.628
rwrist 1.46889
rhand -21.9905 31.0169
rfingers 7.12502
rthumb 4.41793 1.08294
lclavicle 4.57205e-015 2.70347e-014
lhumerus -79.8893 -4.23972 96.7939
lradius 109.94
lwrist 19.3883
lhand -7.59093 -15.5954
lfingers 7.12502
lthumb 18.3024 13.5636
rfemur 13.4278 -3.87018 21.7
rtibia 42.1795
rfoot 6.54784 -6.81986
rtoes -19.6828
lfemur -27.1434 3.93397 -22.9731
ltibia 40.7227
lfoot -11.4258 3.33238
ltoes -8.20765
69
root 3.77087 18.02 -4.34433 -1.01038 173.394 -348.104
lowerback 8.84876 1.4873 2.45669
upperback 1.63094 2.33899 0.100873
thorax -3.17387 1.19315 -1.54424
lowerneck -5.77223 11.4168 2.72576
upperneck 3.82724 16.3414 -11.5596
head 3.27195 7.96456 -3.01496
rclavicle -4.37326e-014 4.13472e-014
rhumerus -60.7715 26.8445 -109.985
rradius 102.454
rwrist 1.03859
rhand -22.5021 30.3874
rfingers 7.12502
rthumb 3.92396 0.443831
lclavicle -4.37326e-014 4.13472e-014
lhumerus -78.9303 -3.99058 96.5842
lradius 110.624
lwrist 19.7255
lhand -7.84173 -15.4651
lfingers 7.12502
lthumb 18.0611 13.7164
rfemur 13.2271 -4.53218 21.613
rtibia 44.2934
rfoot 5.92632 -6.87426
rtoes -18.4974
lfemur -26.786 3.89263 -23.0096
ltibia 39.3902
lfoot -11.3711 4.22893
ltoes -8.53644
70
root 3.78789 17.9693 -4.67936 -1.32425 174.265 -347.856
lowerback 8.89344 1.28375 2.66445
upperback 1.80582 2.1009 0.124544
thorax -3.02131 1.083 -1.60815
lowerneck -5.85892 11.4418 2.65379
upperneck 3.88944 16.4221 -11.6928
head 3.31689 7.99962 -3.02868
rclavicle 1.31198e-014 -7.95139e-014
rhumerus -60.8899 26.5361 -109.921
rradius 101.107
rwrist 0.736927
rhand -23.1201 30.1666
rfingers 7.12502
rthumb 3.3271 0.212832
lclavicle 1.31198e-014 -7.95139e-014
lhumerus -77.7497 -3.81283 96.3894
lradius 111.252
lwrist 20.0868
lhand -8.01593 -15.1469
lfingers 7.12502
lthumb 17.8935 14.0499
rfemur 12.9867 -5.12585 21.423
rtibia 46.4992
rfoot 5.44888 -6.66411
rtoes -17.3938
lfemur -26.4027 4.03123 -23.165
ltibia 38.4273
lfoot -11.3402 4.88289
ltoes -8.11387
71
root 3.8042 17.9048 -5.01307 -1.67533 175.137 -347.821
lowerback 8.96275 1.08388 2.73045
upperback 1.99292 1.8524 0.0518617
thorax -2.87288 0.969256 -1.69198
lowerneck -5.86415 11.4626 2.44031
upperneck 3.75866 16.4589 -11.6778
head 3.26278 8.02295 -2.99598
rclavicle 1.31198e-014 -3.02153e-014
rhumerus -60.9439 25.9835 -109.74
rradius 99.6689
rwrist 0.553373
rhand -23.6458 30.3425
rfingers 7.12502
rthumb 2.81947 0.381436
lclavicle 1.31198e-014 -3.02153e-014
lhumerus -76.5092 -3.73141 96.1562
lradius 111.8
lwrist 20.4996
lhand -8.1485 -14.8597
lfingers 7.12502
lthumb 17.766 14.3487
rfemur 12.658 -5.70939 20.9774
rtibia 48.8192
rfoot 5.15674 -6.10313
rtoes -16.7297
lfemur -26.0861 4.35294 -23.6445
ltibia 37.8113
lfoot -11.3297 5.23644
ltoes -7.69771
72
root 3.82178 17.8237 -5.34173 -2.14312 176.015 -347.801
lowerback 9.19407 0.85869 2.81764
upperback 2.17524 1.58146 -0.00803171
thorax -2.82126 0.844274 -1.77651
lowerneck -5.65542 11.4644 1.98759
upperneck 3.3077 16.4432 -11.2985
head 3.34165 8.06879 -3.18543
rclavicle 1.98785e-016 2.38542e-014
rhumerus -60.9924 25.2839 -109.38
rradius 98.2236
rwrist 0.526864
rhand -24.0116 30.6331
rfingers 7.12502
rthumb 2.4662 0.667619
lclavicle 1.98785e-016 2.38542e-014
lhumerus -75.31 -3.55921 95.9837
lradius 112.352
lwrist 20.8014
lhand -8.25337 -14.559
lfingers 7.12502
lthumb 17.665 14.6586
rfemur 12.3238 -6.31855 20.4725
rtibia 51.2974
rfoot 4.82466 -5.17778
rtoes -17.1045
lfemur -25.6373 4.81715 -24.2184
ltibia 37.5565
lfoot -11.2535 5.48544
ltoes -6.12677
